<svg width="800px" height="800px" viewBox="0 0 24 24" id="database-3" data-name="Flat Line" xmlns="http://www.w3.org/2000/svg" class="icon flat-line">
  <rect id="secondary" x="4" y="3" width="16" height="6" rx="1" style="fill: none; stroke-width: 2; stroke: #56b26f;"></rect>
  <path id="primary" d="M12,15v6M8,21h8M20,8V4a1,1,0,0,0-1-1H5A1,1,0,0,0,4,4V8A1,1,0,0,0,5,9H19A1,1,0,0,0,20,8Zm0,6V10a1,1,0,0,0-1-1H5a1,1,0,0,0-1,1v4a1,1,0,0,0,1,1H19A1,1,0,0,0,20,14Z" style="fill: none; stroke: #56b26f; stroke-linecap: round; stroke-linejoin: round; stroke-width: 2;"></path>
</svg>
