<svg width="24" height="24" viewBox="0 0 24 24" fill="none" xmlns="http://www.w3.org/2000/svg">
<path d="M19.7 3H4.3C3.42 3 2.54 3.3375 1.99 4.0125C1.44 4.6875 1 5.475 1 6.375V17.625C1 18.525 1.33 19.425 1.99 19.9875C2.54 20.6625 3.42 21 4.3 21H19.7C20.58 21 21.46 20.6625 22.01 19.9875C22.67 19.3125 23 18.525 23 17.625V6.375C23 5.475 22.67 4.575 22.01 4.0125C21.46 3.3375 20.58 3 19.7 3ZM4.3 5.25H19.7C20.03 5.25 20.25 5.3625 20.47 5.5875C20.69 5.8125 20.8 6.0375 20.8 6.375L12 11.8875L3.2 6.375C3.2 6.0375 3.31 5.8125 3.53 5.5875C3.75 5.3625 3.97 5.25 4.3 5.25ZM20.8 17.625C20.8 17.9625 20.69 18.1875 20.47 18.4125C20.25 18.6375 20.03 18.75 19.7 18.75H4.3C3.97 18.75 3.75 18.6375 3.53 18.4125C3.31 18.1875 3.2 17.9625 3.2 17.625V8.9625L11.45 14.1375C11.67 14.25 11.78 14.25 12 14.25C12.22 14.25 12.33 14.25 12.55 14.1375L20.8 8.9625V17.625Z" fill="black"/>
</svg>
