<svg width="24" height="24" viewBox="0 0 24 24" fill="none" xmlns="http://www.w3.org/2000/svg">
<path d="M23 2.61765V21.3824C23 21.8114 22.8296 22.2228 22.5262 22.5262C22.2228 22.8296 21.8114 23 21.3824 23H2.61765C2.18862 23 1.77717 22.8296 1.4738 22.5262C1.17043 22.2228 1 21.8114 1 21.3824V2.61765C1 2.18862 1.17043 1.77717 1.4738 1.4738C1.77717 1.17043 2.18862 1 2.61765 1H21.3824C21.8114 1 22.2228 1.17043 22.5262 1.4738C22.8296 1.77717 23 2.18862 23 2.61765ZM7.47059 9.41176H4.23529V19.7647H7.47059V9.41176ZM7.76176 5.85294C7.76347 5.60822 7.71696 5.36555 7.62488 5.13881C7.5328 4.91206 7.39696 4.70567 7.22511 4.53142C7.05327 4.35718 6.84879 4.21848 6.62334 4.12326C6.39789 4.02804 6.1559 3.97816 5.91118 3.97647H5.85294C5.35527 3.97647 4.87798 4.17417 4.52608 4.52608C4.17417 4.87798 3.97647 5.35527 3.97647 5.85294C3.97647 6.35061 4.17417 6.8279 4.52608 7.17981C4.87798 7.53171 5.35527 7.72941 5.85294 7.72941C6.09768 7.73543 6.34121 7.69317 6.56961 7.60504C6.79801 7.51691 7.00681 7.38464 7.18408 7.21579C7.36134 7.04694 7.5036 6.84481 7.60272 6.62096C7.70185 6.39711 7.75589 6.15592 7.76176 5.91118V5.85294ZM19.7647 13.4753C19.7647 10.3629 17.7847 9.15294 15.8176 9.15294C15.1736 9.12069 14.5323 9.25787 13.9578 9.55079C13.3834 9.84372 12.8957 10.2821 12.5435 10.8224H12.4529V9.41176H9.41176V19.7647H12.6471V14.2582C12.6003 13.6943 12.7779 13.1346 13.1414 12.7009C13.5049 12.2672 14.0248 11.9944 14.5882 11.9418H14.7112C15.74 11.9418 16.5035 12.5888 16.5035 14.2194V19.7647H19.7388L19.7647 13.4753Z" fill="black"/>
</svg>
