<svg width="200" height="200" viewBox="0 0 200 200" fill="none" xmlns="http://www.w3.org/2000/svg">
<rect width="200" height="200" fill="none"/>
<path d="M144.371 65.7515C141.58 57.3988 135.417 50.592 127.515 46.9417C123.436 45.0522 118.883 44 114.095 44C96.4662 44 82.1655 58.3006 82.1655 75.9294C82.1655 79.9233 82.9171 83.7669 84.2484 87.2883L53.0919 118.445C53.0061 118.509 52.9202 118.595 52.8343 118.681C52.3619 119.175 52.0613 119.819 52.0613 120.571V135.301C52.0613 136.782 53.2637 137.985 54.7453 137.985H68.6594C69.5183 137.985 70.2913 137.577 70.7637 136.932L71.73 135.966V128.73H78.9662L80.5766 127.12V119.497H88.1993L89.8097 117.887V110.264H97.4324L102.156 105.54C103.101 105.926 104.067 106.27 105.055 106.549C107.911 107.387 110.939 107.859 114.095 107.859C125.089 107.859 134.794 102.298 140.528 93.8374C143.985 88.727 146.003 82.5644 146.003 75.9294C146.024 72.365 145.445 68.9509 144.371 65.7515ZM126.034 75.1779C125.067 75.5215 124.015 75.6933 122.92 75.6933C117.702 75.6933 113.494 71.4632 113.494 66.2669C113.494 61.0706 117.724 56.8405 122.92 56.8405C124.982 56.8405 126.893 57.5061 128.46 58.6442C130.822 60.362 132.368 63.1534 132.368 66.2884C132.368 70.3896 129.727 73.8896 126.034 75.1779Z" fill="white"/>
<path d="M166.745 78.6779L145.531 66.4172L144.371 65.7515C145.445 68.9509 146.025 72.365 146.025 75.908C146.025 82.5429 144.006 88.7055 140.549 93.8159C134.816 102.276 125.11 107.837 114.117 107.837C113.666 107.837 113.215 107.816 112.764 107.816C112.742 107.816 112.721 107.816 112.678 107.816C110.058 107.709 107.503 107.258 105.077 106.549C104.089 106.248 103.123 105.926 102.178 105.54L97.454 110.264H89.8313V117.886L88.2209 119.497H80.5981V127.12L78.9877 128.73H71.7515V135.966L70.7853 136.932C70.2914 137.555 69.5399 137.985 68.681 137.985H54.7669C53.2853 137.985 52.0828 136.782 52.0828 135.301V120.571C52.0828 119.84 52.3834 119.175 52.8558 118.681C44.0521 116.748 35.9571 112.948 29 107.73C35.3344 135.386 60.092 156 89.6595 156C124.015 156 151.886 128.15 151.886 93.773C151.886 91.6472 151.779 89.5429 151.564 87.4601L166.745 78.6779Z" fill="#53B36F"/>
</svg>
