<?xml version="1.0" encoding="iso-8859-1"?>
<!-- Uploaded to: SVG Repo, www.svgrepo.com, Generator: SVG Repo Mixer Tools -->
<svg fill="#56b26f" height="800px" width="800px" version="1.1" id="Layer_1" xmlns="http://www.w3.org/2000/svg" xmlns:xlink="http://www.w3.org/1999/xlink" 
	 viewBox="0 0 511.999 511.999" xml:space="preserve">
<g>
	<g>
		<path d="M475.889,480.777l-43.018-86.036h23.279c9.211,0,16.679-7.468,16.679-16.679s-7.468-16.679-16.679-16.679h-39.957
			l-83.598-167.197c4.369-10.114,6.801-21.254,6.801-32.954c0-27.225-13.117-51.441-33.358-66.671V50.038
			C306.037,22.447,283.59,0,256,0c-27.591,0-50.038,22.447-50.038,50.038v44.523c-20.242,15.23-33.358,39.446-33.358,66.671
			c0,11.7,2.433,22.839,6.801,32.954L95.807,361.382H55.849c-9.211,0-16.679,7.468-16.679,16.679s7.468,16.679,16.679,16.679h23.279
			L36.11,480.777c-4.12,8.238-0.779,18.258,7.459,22.377c41.229,20.617,91.281,3.936,111.897-37.299l35.557-71.113h48.297v16.679
			c0,9.211,7.468,16.679,16.679,16.679s16.679-7.468,16.679-16.679v-16.679h48.297l35.557,71.113
			c20.541,41.081,70.497,57.999,111.897,37.299C476.669,499.035,480.009,489.015,475.889,480.777z M239.321,50.038
			c0-9.197,7.482-16.679,16.679-16.679s16.679,7.482,16.679,16.679v29.477c-5.391-1.099-10.968-1.678-16.679-1.678
			s-11.288,0.579-16.679,1.678V50.038z M256,111.195c27.591,0,50.038,22.447,50.038,50.038c0,26.48-20.68,48.208-46.735,49.916
			c-2.197-0.444-4.381-0.449-6.605,0c-26.056-1.708-46.735-23.436-46.735-49.916C205.962,133.641,228.409,111.195,256,111.195z
			 M125.63,450.936c-9.947,19.897-30.972,29.816-50.957,27.306l41.751-83.502h37.305L125.63,450.936z M170.407,361.382h-37.305
			l68.507-137.012c8.422,7.265,18.296,12.885,29.135,16.338L170.407,361.382z M272.679,361.382v-16.679
			c0-9.211-7.468-16.679-16.679-16.679c-9.211,0-16.679,7.468-16.679,16.679v16.679h-31.618L256,264.789l48.297,96.594H272.679z
			 M341.593,361.382l-60.338-120.674c10.84-3.453,20.713-9.073,29.135-16.339l68.506,137.013H341.593z M386.37,450.936
			l-28.098-56.195h37.304l41.751,83.502C417.371,480.75,396.331,470.859,386.37,450.936z"/>
	</g>
</g>
</svg>